<svg width="293" height="69" viewBox="0 0 293 69" fill="none" xmlns="http://www.w3.org/2000/svg">
<g clip-path="url(#clip0_552_3929)">
<path d="M85.8926 50.9193V45.9226L99.3074 25.423H85.8926V19.8359H106.92V24.7917L93.5048 45.3323H106.92V50.9193H85.8926Z" fill="#009CC9"/>
<path d="M119.661 51.1261C117.166 51.1261 115.176 50.7982 113.691 50.1382C112.205 49.4824 111.134 48.31 110.473 46.6294C109.813 44.9488 109.484 42.6246 109.484 39.6568C109.484 36.6891 109.792 34.2379 110.408 32.5572C111.023 30.8766 112.061 29.7002 113.518 29.0279C114.975 28.3557 116.953 28.0195 119.448 28.0195C121.689 28.0195 123.486 28.245 124.832 28.6918C126.178 29.1386 127.151 29.9256 127.754 31.0447C128.357 32.1637 128.657 33.746 128.657 35.7914C128.657 37.304 128.353 38.5009 127.754 39.3822C127.151 40.2635 126.301 40.8948 125.21 41.2719C124.118 41.649 122.825 41.8376 121.34 41.8376H115.664C115.722 42.9853 115.894 43.9035 116.19 44.5881C116.485 45.2726 117.031 45.7645 117.831 46.0596C118.631 46.3548 119.789 46.5023 121.299 46.5023H127.902V50.1587C126.81 50.3842 125.612 50.6014 124.307 50.8105C123.002 51.0195 121.455 51.1261 119.661 51.1261ZM115.582 38.1443H120.712C121.553 38.1443 122.169 37.9762 122.563 37.6401C122.957 37.304 123.15 36.7014 123.15 35.8324C123.15 35.0208 123.022 34.369 122.772 33.8812C122.518 33.3934 122.128 33.0409 121.594 32.8319C121.061 32.6228 120.347 32.5162 119.448 32.5162C118.496 32.5162 117.737 32.6761 117.179 32.9999C116.617 33.3238 116.21 33.8894 115.96 34.7011C115.71 35.5127 115.582 36.6604 115.582 38.1443Z" fill="#009CC9"/>
<path d="M132.067 50.9188V28.3615H137.196L138.288 30.6734C139.129 29.9724 140.188 29.3494 141.464 28.8042C142.74 28.259 144.049 27.9844 145.395 27.9844C147.246 27.9844 148.674 28.3492 149.684 29.0747C150.693 29.8044 151.399 30.7759 151.805 31.9933C152.211 33.2107 152.417 34.5634 152.417 36.0473V50.9188H146.191V36.8466C146.191 36.117 146.06 35.5185 145.793 35.0389C145.527 34.5634 145.153 34.1986 144.677 33.9486C144.201 33.6944 143.627 33.5714 142.954 33.5714C142.367 33.5714 141.796 33.6411 141.251 33.7805C140.705 33.9199 140.184 34.1166 139.695 34.3667C139.203 34.6167 138.735 34.9118 138.288 35.248V50.9147H132.062L132.067 50.9188Z" fill="#009CC9"/>
<path d="M163.816 51.1682C162.051 51.1682 160.562 50.7993 159.359 50.0533C158.153 49.3113 157.25 48.1062 156.647 46.442C156.044 44.7777 155.744 42.5847 155.744 39.867C155.744 37.1493 156.003 34.8005 156.524 33.0625C157.041 31.3245 157.919 30.0538 159.15 29.2381C160.385 28.4265 162.08 28.0207 164.239 28.0207C165.277 28.0207 166.299 28.1272 167.308 28.3363C168.318 28.5453 169.216 28.7913 170 29.07V18.8633H176.266V50.9141H171.01L170 48.7703C169.524 49.2171 168.941 49.6229 168.256 49.9877C167.571 50.3525 166.849 50.6394 166.089 50.8485C165.334 51.0575 164.575 51.1641 163.82 51.1641L163.816 51.1682ZM165.999 46.1714C166.84 46.1714 167.604 46.0321 168.293 45.7533C168.978 45.4746 169.549 45.1917 169.996 44.913V33.5708C169.434 33.3741 168.847 33.1773 168.232 32.9846C167.616 32.7879 166.955 32.6895 166.254 32.6895C165.215 32.6895 164.382 32.874 163.75 33.2347C163.118 33.5995 162.663 34.28 162.384 35.2719C162.105 36.268 161.965 37.7027 161.965 39.576C161.965 41.314 162.097 42.6626 162.363 43.63C162.63 44.5974 163.057 45.2614 163.648 45.6262C164.239 45.9911 165.022 46.1714 166.003 46.1714H165.999Z" fill="#009CC9"/>
<path d="M189.759 51.1261C187.264 51.1261 185.274 50.7982 183.788 50.1382C182.303 49.4824 181.228 48.31 180.571 46.6294C179.91 44.9488 179.582 42.6246 179.582 39.6568C179.582 36.6891 179.89 34.2379 180.505 32.5572C181.121 30.8766 182.159 29.7002 183.616 29.0279C185.073 28.3557 187.051 28.0195 189.546 28.0195C191.786 28.0195 193.584 28.245 194.93 28.6918C196.276 29.1386 197.248 29.9256 197.851 31.0447C198.455 32.1637 198.754 33.746 198.754 35.7914C198.754 37.304 198.455 38.5009 197.851 39.3822C197.248 40.2635 196.399 40.8948 195.307 41.2719C194.216 41.649 192.923 41.8376 191.437 41.8376H185.762C185.82 42.9853 185.992 43.9035 186.287 44.5881C186.583 45.2726 187.129 45.7645 187.929 46.0596C188.729 46.3548 189.882 46.5023 191.396 46.5023H197.999V50.1587C196.908 50.3842 195.709 50.6014 194.404 50.8105C193.099 51.0195 191.552 51.1261 189.759 51.1261ZM185.68 38.1443H190.81C191.651 38.1443 192.266 37.9762 192.66 37.6401C193.054 37.304 193.247 36.7014 193.247 35.8324C193.247 35.0208 193.12 34.369 192.87 33.8812C192.619 33.3934 192.225 33.0409 191.692 32.8319C191.158 32.6228 190.444 32.5162 189.546 32.5162C188.594 32.5162 187.834 32.6761 187.276 32.9999C186.714 33.3238 186.308 33.8894 186.058 34.7011C185.807 35.5127 185.68 36.6604 185.68 38.1443Z" fill="#009CC9"/>
<path d="M202.164 50.9188V28.3615H206.958L208.386 31.8048C209.198 30.7677 210.117 29.8864 211.139 29.1568C212.161 28.4271 213.376 28.0664 214.775 28.0664C215.083 28.0664 215.399 28.0828 215.723 28.1074C216.043 28.1361 216.347 28.1935 216.626 28.2755V34.6618C216.203 34.6045 215.764 34.5553 215.3 34.5143C214.836 34.4733 214.397 34.4528 213.975 34.4528C213.162 34.4528 212.424 34.543 211.767 34.7274C211.106 34.9119 210.507 35.1742 209.957 35.5268C209.411 35.8793 208.886 36.3302 208.381 36.8917V50.9229H202.156L202.164 50.9188Z" fill="#009CC9"/>
<path d="M219.576 50.9195V19.832H225.801V32.7688H237.534V19.832H243.8V50.9154H237.534V38.3558H225.801V50.9154H219.576V50.9195Z" fill="#A3086A"/>
<path d="M254.565 51.1669C252.546 51.1669 250.962 50.5725 249.813 49.3797C248.664 48.191 248.09 46.5021 248.09 44.3173V28.3555H254.315V42.4686C254.315 43.7271 254.615 44.5756 255.218 45.0101C255.821 45.4446 256.613 45.6618 257.594 45.6618C258.378 45.6618 259.186 45.5143 260.011 45.2191C260.836 44.924 261.574 44.5264 262.219 44.0222V28.3555H268.485V50.9128H263.314L262.223 48.6009C261.213 49.2731 260.052 49.8675 258.731 50.3881C257.413 50.9087 256.026 51.1669 254.565 51.1669Z" fill="#A3086A"/>
<path d="M285.305 51.168C284.324 51.168 283.442 51.0574 282.654 50.8319C281.87 50.6065 281.16 50.3154 280.528 49.9506C279.896 49.5858 279.301 49.1923 278.739 48.7742L277.729 50.918H272.514V18.8672H278.739V29.9142C279.638 29.4387 280.647 29.0042 281.767 28.6107C282.888 28.2172 283.967 28.0246 285.005 28.0246C286.938 28.0246 288.489 28.4304 289.65 29.242C290.812 30.0536 291.661 31.3202 292.195 33.0418C292.728 34.7635 292.995 37.0385 292.995 39.8668C292.995 42.3878 292.72 44.4865 292.174 46.1671C291.628 47.8478 290.787 49.1021 289.65 49.926C288.514 50.754 287.065 51.1639 285.297 51.1639L285.305 51.168ZM282.99 46.0852C283.721 46.0852 284.369 45.8966 284.944 45.5195C285.518 45.1424 285.965 44.4783 286.29 43.5232C286.61 42.5722 286.774 41.2564 286.774 39.5758C286.774 37.6164 286.597 36.1817 286.249 35.2718C285.896 34.3618 285.436 33.7592 284.862 33.4641C284.287 33.1689 283.663 33.0213 282.99 33.0213C282.149 33.0213 281.369 33.1566 280.655 33.419C279.941 33.6854 279.301 33.9723 278.743 34.2798V44.9907C279.276 45.2694 279.884 45.5236 280.573 45.749C281.259 45.9745 282.067 46.0852 282.99 46.0852Z" fill="#A3086A"/>
<path d="M48.6898 34.7767C48.6898 29.7881 46.0881 25.4103 42.1691 22.9098H49.8429C52.4077 26.1891 53.9384 30.3046 53.9384 34.7767C53.9384 36.0679 53.807 37.3304 53.5649 38.552L68.9987 22.9057V0H23.1323C10.4685 0 0.201172 10.2559 0.201172 22.9098H27.0267C23.1077 25.4103 20.506 29.7881 20.506 34.7767C20.506 39.4169 22.7548 43.5282 26.2183 46.0943H18.9343C16.6239 42.9093 15.2533 39.0028 15.2533 34.7767C15.2533 33.3051 15.4257 31.8745 15.7376 30.4931L0.201172 46.0902V69H46.0676C58.7314 69 69.0028 58.7441 69.0028 46.0902H42.9816C46.4451 43.5242 48.6939 39.4128 48.6939 34.7726L48.6898 34.7767ZM41.6726 34.6988C41.6726 38.6626 38.4553 41.8763 34.4871 41.8763C30.5189 41.8763 27.3016 38.6626 27.3016 34.6988C27.3016 30.735 30.5189 27.5213 34.4871 27.5213C38.4553 27.5213 41.6726 30.735 41.6726 34.6988Z" fill="url(#paint0_linear_552_3929)"/>
<g opacity="0.15">
<path d="M49.8438 22.832C52.4085 26.1113 53.9392 30.2268 53.9392 34.6989C53.9392 30.2268 52.4044 26.1072 49.8438 22.832Z" fill="#2D2D2D"/>
<path d="M53.9431 34.6991C53.9431 35.9903 53.8118 37.2528 53.5697 38.4744L69.0035 22.8281H49.8477C52.4124 26.1074 53.9431 30.2229 53.9431 34.695V34.6991Z" fill="#2D2D2D"/>
<path d="M18.9384 46.0152C16.628 42.8302 15.2574 38.9238 15.2574 34.6976C15.2574 33.226 15.4298 31.7955 15.7417 30.4141L0.201172 46.0152H18.9384Z" fill="#2D2D2D"/>
<path d="M48.6899 34.6989C48.6899 29.7103 46.0882 25.3325 42.1692 22.832H27.0226C23.1037 25.3325 20.502 29.7103 20.502 34.6989C20.502 39.3391 22.7507 43.4505 26.2142 46.0165H42.9735C46.437 43.4505 48.6858 39.3391 48.6858 34.6989H48.6899ZM34.4913 41.7985C30.523 41.7985 27.3058 38.5848 27.3058 34.621C27.3058 30.6572 30.523 27.4435 34.4913 27.4435C38.4595 27.4435 41.6767 30.6572 41.6767 34.621C41.6767 38.5848 38.4595 41.7985 34.4913 41.7985Z" fill="#2D2D2D"/>
</g>
<path opacity="0.1" d="M50.0605 23.4609C50.1919 23.6413 50.3191 23.8258 50.4463 24.0143H67.7144L68.2602 23.4609H50.0647H50.0605Z" fill="#2D2D2D"/>
<path opacity="0.4" d="M68.2565 23.4596L68.8023 22.9062H49.6465C49.7901 23.0866 49.9255 23.2711 50.0609 23.4596H68.2565Z" fill="#2D2D2D"/>
<path opacity="0.4" d="M0.549888 45.543L0 46.0963H18.7372C18.6059 45.916 18.4787 45.7315 18.3515 45.543H0.549888Z" fill="#2D2D2D"/>
<path opacity="0.1" d="M18.3524 45.5417C18.2293 45.3613 18.1103 45.1768 17.9954 44.9883H1.10067L0.550781 45.5417H18.3524Z" fill="#2D2D2D"/>
<path opacity="0.4" d="M42.7399 23.4592C42.4855 23.2707 42.2229 23.0862 41.952 22.9141H26.8055C26.5346 23.0862 26.2761 23.2666 26.0176 23.4592H42.7358H42.7399Z" fill="#2D2D2D"/>
<path opacity="0.1" d="M26.022 23.4609C25.784 23.6372 25.5501 23.8217 25.3203 24.0143H43.442C43.2163 23.8217 42.9824 23.6413 42.7403 23.4609H26.022Z" fill="#2D2D2D"/>
<path opacity="0.4" d="M25.3244 45.543C25.5501 45.7356 25.7799 45.9201 26.0179 46.0963H42.7772C43.0152 45.9201 43.245 45.7356 43.4707 45.543H25.3203H25.3244Z" fill="#2D2D2D"/>
<path opacity="0.1" d="M43.4732 45.5417C43.6825 45.3613 43.8918 45.1809 44.0887 44.9883H24.7031C24.9042 45.1768 25.1094 45.3613 25.3187 45.5417H43.4691H43.4732Z" fill="#2D2D2D"/>
</g>
<defs>
<linearGradient id="paint0_linear_552_3929" x1="56.8367" y1="30.7134" x2="13.5846" y2="49.9743" gradientUnits="userSpaceOnUse">
<stop stop-color="#A3086A"/>
<stop offset="0.845" stop-color="#009CC9"/>
</linearGradient>
<clipPath id="clip0_552_3929">
<rect width="293" height="69" fill="white"/>
</clipPath>
</defs>
</svg>
