<svg width="73" height="69" viewBox="0 0 73 69" fill="none" xmlns="http://www.w3.org/2000/svg">
<path d="M51.7347 34.7767C51.7347 29.7881 49.133 25.4103 45.214 22.9098H52.8878C55.4526 26.1891 56.9833 30.3046 56.9833 34.7767C56.9833 36.0679 56.852 37.3304 56.6098 38.552L72.0436 22.9057V0H26.1772C13.5134 0 3.24609 10.2559 3.24609 22.9098H30.0716C26.1526 25.4103 23.5509 29.7881 23.5509 34.7767C23.5509 39.4169 25.7997 43.5282 29.2632 46.0943H21.9792C19.6689 42.9093 18.2982 39.0028 18.2982 34.7767C18.2982 33.3051 18.4706 31.8745 18.7825 30.4931L3.24609 46.0902V69H49.1125C61.7763 69 72.0477 58.7441 72.0477 46.0902H46.0266C49.49 43.5242 51.7388 39.4128 51.7388 34.7726L51.7347 34.7767ZM44.7175 34.6988C44.7175 38.6626 41.5002 41.8763 37.532 41.8763C33.5638 41.8763 30.3465 38.6626 30.3465 34.6988C30.3465 30.735 33.5638 27.5213 37.532 27.5213C41.5002 27.5213 44.7175 30.735 44.7175 34.6988Z" fill="url(#paint0_linear_552_3928)"/>
<g opacity="0.15">
<path d="M52.8887 22.832C55.4534 26.1113 56.9841 30.2268 56.9841 34.6989C56.9841 30.2268 55.4493 26.1072 52.8887 22.832Z" fill="#2D2D2D"/>
<path d="M56.988 34.6991C56.988 35.9903 56.8567 37.2528 56.6146 38.4744L72.0484 22.8281H52.8926C55.4574 26.1074 56.988 30.2229 56.988 34.695V34.6991Z" fill="#2D2D2D"/>
<path d="M21.9833 46.0152C19.673 42.8302 18.3024 38.9238 18.3024 34.6976C18.3024 33.226 18.4747 31.7955 18.7866 30.4141L3.24609 46.0152H21.9833Z" fill="#2D2D2D"/>
<path d="M51.7348 34.6989C51.7348 29.7103 49.1331 25.3325 45.2141 22.832H30.0676C26.1486 25.3325 23.5469 29.7103 23.5469 34.6989C23.5469 39.3391 25.7957 43.4505 29.2591 46.0165H46.0184C49.4819 43.4505 51.7307 39.3391 51.7307 34.6989H51.7348ZM37.5362 41.7985C33.568 41.7985 30.3507 38.5848 30.3507 34.621C30.3507 30.6572 33.568 27.4435 37.5362 27.4435C41.5044 27.4435 44.7217 30.6572 44.7217 34.621C44.7217 38.5848 41.5044 41.7985 37.5362 41.7985Z" fill="#2D2D2D"/>
</g>
<path opacity="0.1" d="M53.1055 23.4609C53.2368 23.6413 53.364 23.8258 53.4912 24.0143H70.7593L71.3051 23.4609H53.1096H53.1055Z" fill="#2D2D2D"/>
<path opacity="0.4" d="M71.3014 23.4596L71.8472 22.9062H52.6914C52.835 23.0866 52.9705 23.2711 53.1059 23.4596H71.3014Z" fill="#2D2D2D"/>
<path opacity="0.4" d="M3.59481 45.543L3.04492 46.0963H21.7821C21.6508 45.916 21.5236 45.7315 21.3964 45.543H3.59481Z" fill="#2D2D2D"/>
<path opacity="0.1" d="M21.3973 45.5417C21.2742 45.3613 21.1552 45.1768 21.0403 44.9883H4.14559L3.5957 45.5417H21.3973Z" fill="#2D2D2D"/>
<path opacity="0.4" d="M45.7848 23.4592C45.5304 23.2707 45.2678 23.0862 44.9969 22.9141H29.8504C29.5796 23.0862 29.321 23.2666 29.0625 23.4592H45.7807H45.7848Z" fill="#2D2D2D"/>
<path opacity="0.1" d="M29.067 23.4609C28.8289 23.6372 28.595 23.8217 28.3652 24.0143H46.4869C46.2612 23.8217 46.0273 23.6413 45.7852 23.4609H29.067Z" fill="#2D2D2D"/>
<path opacity="0.4" d="M28.3693 45.543C28.595 45.7356 28.8248 45.9201 29.0629 46.0963H45.8221C46.0601 45.9201 46.2899 45.7356 46.5156 45.543H28.3652H28.3693Z" fill="#2D2D2D"/>
<path opacity="0.1" d="M46.5181 45.5417C46.7274 45.3613 46.9367 45.1809 47.1336 44.9883H27.748C27.9491 45.1768 28.1543 45.3613 28.3636 45.5417H46.514H46.5181Z" fill="#2D2D2D"/>
<defs>
<linearGradient id="paint0_linear_552_3928" x1="59.8816" y1="30.7134" x2="16.6295" y2="49.9743" gradientUnits="userSpaceOnUse">
<stop stop-color="#A3086A"/>
<stop offset="0.845" stop-color="#009CC9"/>
</linearGradient>
</defs>
</svg>
