<svg width="69" height="69" viewBox="0 0 69 69" fill="none" xmlns="http://www.w3.org/2000/svg">
<path d="M68.7393 22.77V0H22.9118C10.3055 0 0.0779315 10.181 0 22.77H68.7355H68.7393Z" fill="white"/>
<path d="M24.5456 44.4692H44.1918C46.8154 41.9128 48.4483 38.3472 48.4483 34.3958C48.4483 30.1512 46.5631 26.3482 43.5869 23.7695H25.1505C22.178 26.3482 20.2891 30.1512 20.2891 34.3958C20.2891 38.3472 21.9219 41.9128 24.5456 44.4692ZM34.2611 27.1422C38.2244 27.1422 41.4382 30.3553 41.4382 34.3178C41.4382 38.2804 38.2244 41.4935 34.2611 41.4935C30.2977 41.4935 27.0839 38.2804 27.0839 34.3178C27.0839 30.3553 30.2977 27.1422 34.2611 27.1422Z" fill="white"/>
<path d="M0 45.8477V68.6176H45.8274C58.4337 68.6176 68.6613 58.4366 68.7355 45.8477H0Z" fill="white"/>
<path d="M1.23633 44.4683H17.8914C16.0878 41.5335 15.045 38.083 15.045 34.3949C15.045 32.922 15.2157 31.4898 15.5275 30.1133L1.23633 44.4683Z" fill="white"/>
<path d="M67.5148 24.0156H50.4961C52.5149 27.0487 53.695 30.6795 53.695 34.5833C53.695 35.8674 53.5651 37.1256 53.3202 38.3396L67.5148 24.0156Z" fill="white"/>
</svg>
