<svg width="293" height="69" viewBox="0 0 293 69" fill="none" xmlns="http://www.w3.org/2000/svg">
<g clip-path="url(#clip0_552_3927)">
<path d="M85.8906 50.9182V45.9213L99.306 25.4222H85.8906V19.8359H106.917V24.792L93.5019 45.3319H106.917V50.9182H85.8906Z" fill="white"/>
<path d="M119.66 51.1248C117.162 51.1248 115.173 50.7948 113.689 50.1387C112.205 49.4826 111.132 48.3112 110.472 46.632C109.811 44.9528 109.484 42.6286 109.484 39.6594C109.484 36.6901 109.792 34.2399 110.408 32.5607C111.024 30.8814 112.064 29.7027 113.522 29.0317C114.98 28.3608 116.955 28.0234 119.452 28.0234C121.694 28.0234 123.49 28.2496 124.833 28.6944C126.18 29.1429 127.153 29.9288 127.757 31.0483C128.359 32.1677 128.663 33.7506 128.663 35.7931C128.663 37.3055 128.362 38.5028 127.757 39.385C127.153 40.2673 126.306 40.8975 125.212 41.2756C124.117 41.6537 122.829 41.8427 121.341 41.8427H115.663C115.719 42.9918 115.893 43.9075 116.19 44.5932C116.483 45.279 117.033 45.7683 117.83 46.0649C118.628 46.3577 119.786 46.506 121.3 46.506H127.902V50.161C126.807 50.3871 125.609 50.6021 124.306 50.8134C123.004 51.0247 121.452 51.1285 119.66 51.1285V51.1248ZM115.582 38.1469H120.714C121.556 38.1469 122.172 37.9801 122.566 37.6428C122.959 37.3055 123.156 36.705 123.156 35.8376C123.156 35.0257 123.03 34.3733 122.777 33.884C122.525 33.3947 122.132 33.0426 121.601 32.835C121.066 32.6237 120.354 32.5199 119.456 32.5199C118.502 32.5199 117.745 32.683 117.185 33.0018C116.624 33.3243 116.216 33.8914 115.964 34.7032C115.711 35.5151 115.585 36.6642 115.585 38.1469H115.582Z" fill="white"/>
<path d="M132.066 50.915V28.3586H137.199L138.294 30.668C139.136 29.9674 140.194 29.3446 141.466 28.7997C142.743 28.2548 144.053 27.9805 145.4 27.9805C147.252 27.9805 148.681 28.3437 149.69 29.074C150.699 29.8043 151.408 30.7755 151.813 31.995C152.217 33.2146 152.421 34.5639 152.421 36.0504V50.9187H146.198V36.8473C146.198 36.1208 146.064 35.5166 145.797 35.0421C145.53 34.5676 145.159 34.2006 144.684 33.9486C144.205 33.6965 143.634 33.5705 142.958 33.5705C142.368 33.5705 141.8 33.6409 141.255 33.7817C140.709 33.9226 140.19 34.1191 139.7 34.3711C139.21 34.6232 138.739 34.9161 138.29 35.2534V50.9224H132.066V50.915Z" fill="white"/>
<path d="M163.815 51.1688C162.049 51.1688 160.565 50.7981 159.358 50.0567C158.152 49.3154 157.247 48.1106 156.646 46.4425C156.041 44.7781 155.74 42.5837 155.74 39.8702C155.74 37.1568 156 34.8029 156.52 33.0644C157.039 31.3295 157.915 30.0544 159.147 29.2426C160.379 28.4308 162.075 28.023 164.235 28.023C165.27 28.023 166.294 28.1268 167.304 28.3381C168.313 28.5494 169.211 28.794 169.994 29.072V18.8633H176.258V50.913H171.004L169.994 48.7704C169.516 49.219 168.937 49.6267 168.25 49.99C167.564 50.3533 166.84 50.6424 166.083 50.85C165.326 51.0613 164.569 51.1651 163.812 51.1651L163.815 51.1688ZM166.001 46.1682C166.844 46.1682 167.604 46.0273 168.295 45.7493C168.981 45.4713 169.549 45.1896 169.998 44.9079V33.5648C169.438 33.3683 168.848 33.1719 168.232 32.9754C167.615 32.7789 166.955 32.6826 166.254 32.6826C165.214 32.6826 164.383 32.8642 163.752 33.2275C163.121 33.5907 162.665 34.2728 162.387 35.2663C162.105 36.2597 161.967 37.6943 161.967 39.5737C161.967 41.3085 162.101 42.6615 162.368 43.629C162.635 44.5965 163.062 45.26 163.652 45.6233C164.242 45.9866 165.025 46.1682 166.009 46.1682H166.001Z" fill="white"/>
<path d="M189.762 51.1248C187.268 51.1248 185.275 50.7948 183.791 50.1387C182.302 49.4826 181.23 48.3112 180.573 46.632C179.913 44.9528 179.586 42.6286 179.586 39.6594C179.586 36.6901 179.894 34.2399 180.51 32.5607C181.126 30.8814 182.165 29.7027 183.624 29.0317C185.082 28.3608 187.056 28.0234 189.554 28.0234C191.795 28.0234 193.591 28.2496 194.938 28.6944C196.286 29.1429 197.258 29.9288 197.863 31.0483C198.464 32.1677 198.768 33.7506 198.768 35.7931C198.768 37.3055 198.468 38.5028 197.863 39.385C197.262 40.2673 196.412 40.8975 195.317 41.2756C194.222 41.6537 192.934 41.8427 191.446 41.8427H185.769C185.824 42.9918 185.999 43.9075 186.295 44.5932C186.589 45.279 187.138 45.7683 187.936 46.0649C188.734 46.3614 189.891 46.506 191.406 46.506H198.007V50.161C196.913 50.3871 195.714 50.6021 194.411 50.8134C193.109 51.0247 191.558 51.1285 189.765 51.1285L189.762 51.1248ZM185.683 38.1469H190.812C191.654 38.1469 192.27 37.9801 192.664 37.6428C193.057 37.3055 193.254 36.705 193.254 35.8376C193.254 35.0257 193.127 34.3733 192.875 33.884C192.623 33.3947 192.229 33.0426 191.699 32.835C191.164 32.6237 190.452 32.5199 189.554 32.5199C188.6 32.5199 187.843 32.683 187.283 33.0018C186.722 33.3243 186.314 33.8914 186.062 34.7032C185.809 35.5151 185.683 36.6642 185.683 38.1469Z" fill="white"/>
<path d="M202.168 50.9155V28.3591H206.963L208.391 31.8028C209.204 30.7685 210.121 29.8863 211.145 29.156C212.169 28.4295 213.379 28.0625 214.782 28.0625C215.09 28.0625 215.405 28.0773 215.728 28.1033C216.051 28.1329 216.351 28.1885 216.634 28.2701V34.6533C216.214 34.5977 215.773 34.5496 215.309 34.5051C214.845 34.4643 214.403 34.4421 213.984 34.4421C213.171 34.4421 212.436 34.5347 211.776 34.7164C211.115 34.898 210.514 35.1649 209.969 35.5133C209.423 35.8655 208.896 36.3177 208.391 36.8775V50.908H202.168V50.9155Z" fill="white"/>
<path d="M219.576 50.918V19.832H225.8V32.7691H237.534V19.832H243.798V50.918H237.534V38.3591H225.8V50.918H219.576Z" fill="#A3086A"/>
<path d="M254.564 51.1677C252.545 51.1677 250.96 50.5746 249.814 49.3809C248.663 48.191 248.088 46.5044 248.088 44.3173V28.3555H254.311V42.4713C254.311 43.7316 254.612 44.5805 255.217 45.0142C255.818 45.4479 256.612 45.6666 257.592 45.6666C258.375 45.6666 259.184 45.5184 260.011 45.2255C260.839 44.9327 261.574 44.5323 262.219 44.0282V28.3592H268.484V50.9156H263.31L262.216 48.6062C261.206 49.2771 260.045 49.8739 258.724 50.3929C257.406 50.9119 256.018 51.1714 254.56 51.1714L254.564 51.1677Z" fill="#A3086A"/>
<path d="M285.302 51.169C284.319 51.169 283.435 51.0578 282.652 50.8317C281.866 50.6093 281.161 50.3127 280.53 49.9494C279.899 49.5862 279.301 49.1932 278.741 48.7744L277.732 50.9169H272.518V18.8672H278.741V29.9137C279.639 29.4392 280.648 29.0055 281.769 28.6126C282.89 28.2197 283.97 28.0232 285.009 28.0232C286.942 28.0232 288.494 28.431 289.655 29.2428C290.817 30.0546 291.666 31.3223 292.201 33.046C292.732 34.7697 292.999 37.0421 292.999 39.8704C292.999 42.3911 292.724 44.4929 292.179 46.1721C291.633 47.8513 290.791 49.1043 289.655 49.9309C288.52 50.7575 287.068 51.169 285.302 51.169ZM282.99 46.0869C283.717 46.0869 284.371 45.8978 284.946 45.5197C285.521 45.1416 285.97 44.4781 286.293 43.5254C286.616 42.5727 286.775 41.2568 286.775 39.5776C286.775 37.6166 286.601 36.1821 286.248 35.2702C285.896 34.362 285.436 33.7578 284.86 33.4649C284.285 33.1721 283.662 33.0238 282.99 33.0238C282.148 33.0238 281.372 33.1572 280.656 33.4241C279.94 33.691 279.301 33.9765 278.741 34.2841V44.997C279.272 45.2788 279.884 45.5308 280.57 45.7532C281.257 45.9794 282.062 46.0906 282.99 46.0906V46.0869Z" fill="#A3086A"/>
<path d="M48.6931 34.7743C48.6931 29.7848 46.0917 25.407 42.1728 22.9049H49.8435C52.4078 26.1817 53.9405 30.3001 53.9405 34.7743C53.9405 36.068 53.8106 37.3284 53.5657 38.5516L68.9998 22.9086V0H23.1316C10.4659 0 0.201172 10.257 0.201172 22.9086H27.0281C23.1093 25.407 20.5079 29.7885 20.5079 34.778C20.5079 39.4153 22.753 43.53 26.2191 46.0951H18.9381C16.6262 42.9109 15.2605 39.0039 15.2605 34.778C15.2605 33.3064 15.4312 31.8755 15.7466 30.4966L0.201172 46.0914V69H46.0694C58.7351 69 69.0035 58.743 69.0035 46.0914H42.9818C46.4479 43.5263 48.6931 39.4153 48.6931 34.7743ZM41.6755 34.7002C41.6755 38.6628 38.4581 41.8767 34.491 41.8767C30.5239 41.8767 27.3065 38.6628 27.3065 34.7002C27.3065 30.7375 30.5239 27.5236 34.491 27.5236C38.4581 27.5236 41.6755 30.7375 41.6755 34.7002Z" fill="url(#paint0_linear_552_3927)"/>
<g opacity="0.15">
<path d="M49.8457 22.832C52.41 26.1089 53.9427 30.2273 53.9427 34.7015C53.9427 30.231 52.41 26.1126 49.8457 22.832Z" fill="#2D2D2D"/>
<path d="M53.9388 34.7017C53.9388 35.9954 53.8089 37.2557 53.564 38.479L68.9981 22.8359H49.8418C52.4061 26.1128 53.9388 30.2312 53.9388 34.7054V34.7017Z" fill="#2D2D2D"/>
<path d="M18.9381 46.0165C16.6262 42.8323 15.2605 38.9253 15.2605 34.6994C15.2605 33.2278 15.4312 31.7969 15.7466 30.418L0.201172 46.0165H18.9381Z" fill="#2D2D2D"/>
<path d="M48.693 34.7015C48.693 29.712 46.0916 25.3342 42.1728 22.832H27.0281C23.1092 25.3305 20.5078 29.712 20.5078 34.7015C20.5078 39.3388 22.753 43.4534 26.2191 46.0186H42.9781C46.4441 43.4534 48.6893 39.3425 48.6893 34.7015H48.693ZM34.4909 41.8002C30.5239 41.8002 27.3064 38.5863 27.3064 34.6236C27.3064 30.661 30.5239 27.4471 34.4909 27.4471C38.458 27.4471 41.6755 30.661 41.6755 34.6236C41.6755 38.5863 38.458 41.8002 34.4909 41.8002Z" fill="#2D2D2D"/>
</g>
<path opacity="0.1" d="M50.0625 23.4609C50.1924 23.6426 50.3223 23.8279 50.4484 24.0133H67.7158L68.2614 23.4609H50.0662H50.0625Z" fill="#2D2D2D"/>
<path opacity="0.4" d="M68.2573 23.4625L68.8028 22.9102H49.6465C49.7875 23.0918 49.9248 23.2771 50.0621 23.4625H68.2573Z" fill="#2D2D2D"/>
<path opacity="0.4" d="M0.549231 45.5391L0 46.0914H18.7369C18.6034 45.9098 18.4772 45.7244 18.351 45.5391H0.549231Z" fill="#2D2D2D"/>
<path opacity="0.1" d="M18.3543 45.5406C18.2318 45.359 18.1131 45.1736 17.9981 44.9883H1.09806L0.548828 45.5406H18.3506H18.3543Z" fill="#2D2D2D"/>
<path opacity="0.4" d="M42.7396 23.4629C42.4836 23.2738 42.2201 23.0922 41.9529 22.918H26.8082C26.5373 23.0885 26.2775 23.2701 26.0215 23.4629H42.7433H42.7396Z" fill="#2D2D2D"/>
<path opacity="0.1" d="M26.0178 23.4609C25.7803 23.6389 25.5465 23.8205 25.3164 24.0133H43.4373C43.211 23.8205 42.9772 23.6389 42.7359 23.4609H26.0141H26.0178Z" fill="#2D2D2D"/>
<path opacity="0.4" d="M25.324 45.5391C25.5504 45.7318 25.7805 45.9135 26.018 46.0914H42.777C43.0145 45.9135 43.2483 45.7318 43.4709 45.5391H25.3203H25.324Z" fill="#2D2D2D"/>
<path opacity="0.1" d="M43.4754 45.5406C43.687 45.3627 43.8911 45.1773 44.0915 44.9883H24.7051C24.9055 45.1773 25.1133 45.3627 25.3211 45.5406H43.4717H43.4754Z" fill="#2D2D2D"/>
</g>
<defs>
<linearGradient id="paint0_linear_552_3927" x1="56.8372" y1="30.7134" x2="13.5849" y2="49.9747" gradientUnits="userSpaceOnUse">
<stop stop-color="#A3086A"/>
<stop offset="0.845" stop-color="#009CC9"/>
</linearGradient>
<clipPath id="clip0_552_3927">
<rect width="293" height="69" fill="white"/>
</clipPath>
</defs>
</svg>
