<svg width="293" height="69" viewBox="0 0 293 69" fill="none" xmlns="http://www.w3.org/2000/svg">
<g clip-path="url(#clip0_552_3926)">
<path d="M68.7393 22.77V0H22.9118C10.3055 0 0.0779315 10.181 0 22.77H68.7355H68.7393Z" fill="white"/>
<path d="M67.5148 24.1484H50.4961C52.5149 27.1983 53.695 30.8492 53.695 34.7747C53.695 36.0658 53.5651 37.331 53.3202 38.5517L67.5148 24.1484Z" fill="white"/>
<path d="M24.5456 44.8481H44.1918C46.8154 42.2917 48.4483 38.7261 48.4483 34.7747C48.4483 30.5301 46.5631 26.7271 43.5869 24.1484H25.1505C22.178 26.7271 20.2891 30.5301 20.2891 34.7747C20.2891 38.7261 21.9219 42.2917 24.5456 44.8481ZM34.2611 27.5211C38.2244 27.5211 41.4382 30.7342 41.4382 34.6968C41.4382 38.6593 38.2244 41.8724 34.2611 41.8724C30.2977 41.8724 27.0839 38.6593 27.0839 34.6968C27.0839 30.7342 30.2977 27.5211 34.2611 27.5211Z" fill="white"/>
<path d="M0 46.2266V68.9965H45.8274C58.4337 68.9965 68.6613 58.8155 68.7355 46.2266H0Z" fill="white"/>
<path d="M1.23633 44.8472H17.8914C16.0878 41.9124 15.045 38.4619 15.045 34.7738C15.045 33.3009 15.2157 31.8687 15.5275 30.4922L1.23633 44.8472Z" fill="white"/>
<path d="M85.5176 50.9981V45.9856L98.9552 25.4306H85.5176V19.8281H106.581V24.7999L93.1437 45.3956H106.581V50.9981H85.5176Z" fill="white"/>
<path d="M119.347 51.2099C116.845 51.2099 114.852 50.8797 113.364 50.2193C111.876 49.5589 110.8 48.3864 110.143 46.7019C109.483 45.0175 109.152 42.6874 109.152 39.7118C109.152 36.7361 109.46 34.2799 110.08 32.5918C110.696 30.9073 111.735 29.7274 113.197 29.0522C114.656 28.3769 116.637 28.043 119.139 28.043C121.384 28.043 123.184 28.2693 124.531 28.7182C125.878 29.1672 126.854 29.9538 127.459 31.078C128.064 32.2022 128.364 33.7865 128.364 35.8383C128.364 37.3558 128.064 38.5542 127.459 39.4409C126.854 40.324 126.004 40.9584 124.909 41.3369C123.815 41.7153 122.523 41.9046 121.035 41.9046H115.346C115.402 43.0547 115.576 43.9749 115.873 44.665C116.166 45.3551 116.715 45.8449 117.517 46.138C118.319 46.4311 119.476 46.5795 120.994 46.5795H127.607V50.2453C126.512 50.4716 125.31 50.6868 124.004 50.8983C122.698 51.1098 121.146 51.2136 119.35 51.2136L119.347 51.2099ZM115.261 38.1943H120.4C121.243 38.1943 121.859 38.0273 122.252 37.6897C122.646 37.3521 122.842 36.751 122.842 35.8791C122.842 35.0665 122.716 34.4135 122.464 33.92C122.211 33.4303 121.818 33.0778 121.284 32.8663C120.749 32.6548 120.033 32.551 119.135 32.551C118.181 32.551 117.42 32.7142 116.86 33.037C116.3 33.3598 115.892 33.9275 115.639 34.7437C115.387 35.56 115.261 36.7102 115.261 38.198V38.1943Z" fill="white"/>
<path d="M131.775 50.9963V28.3784H136.915L138.01 30.6937C138.852 29.9924 139.914 29.3654 141.19 28.82C142.467 28.2708 143.781 28 145.131 28C146.983 28 148.419 28.3636 149.429 29.0945C150.438 29.8255 151.147 30.8013 151.555 32.0219C151.963 33.2426 152.167 34.5969 152.167 36.0884V51H145.933V36.8898C145.933 36.1589 145.799 35.5578 145.532 35.0792C145.265 34.6006 144.894 34.237 144.415 33.9847C143.936 33.7324 143.361 33.6062 142.69 33.6062C142.099 33.6062 141.532 33.6767 140.982 33.8177C140.433 33.9587 139.914 34.1553 139.424 34.4076C138.93 34.6599 138.463 34.9568 138.014 35.2907V51H131.779L131.775 50.9963Z" fill="white"/>
<path d="M163.582 51.2501C161.812 51.2501 160.324 50.8791 159.118 50.1333C157.912 49.3912 157.003 48.1817 156.402 46.5121C155.797 44.8424 155.496 42.646 155.496 39.9189C155.496 37.1918 155.756 34.8358 156.275 33.0957C156.795 31.3556 157.671 30.0792 158.907 29.263C160.142 28.4504 161.842 28.0423 164.005 28.0423C165.045 28.0423 166.069 28.1462 167.082 28.3577C168.091 28.5692 168.993 28.814 169.78 29.096V18.8594H176.059V50.9978H170.793L169.784 48.8495C169.305 49.2985 168.722 49.7066 168.036 50.0702C167.345 50.4338 166.625 50.7232 165.865 50.9347C165.108 51.1462 164.347 51.2501 163.59 51.2501H163.582ZM165.772 46.2375C166.614 46.2375 167.379 46.0965 168.069 45.8145C168.756 45.5325 169.327 45.2543 169.776 44.9723V33.6003C169.216 33.4037 168.626 33.207 168.006 33.0104C167.386 32.8137 166.729 32.7173 166.024 32.7173C164.985 32.7173 164.15 32.8991 163.519 33.2664C162.888 33.63 162.432 34.3127 162.15 35.3107C161.868 36.3088 161.727 37.7484 161.727 39.6295C161.727 41.3696 161.86 42.7239 162.128 43.6923C162.395 44.6606 162.822 45.3285 163.412 45.6921C164.002 46.0557 164.788 46.2412 165.772 46.2412V46.2375Z" fill="white"/>
<path d="M189.575 51.2099C187.074 51.2099 185.081 50.8797 183.593 50.2193C182.105 49.5589 181.029 48.3864 180.372 46.7019C179.711 45.0175 179.381 42.6874 179.381 39.7118C179.381 36.7361 179.689 34.2799 180.309 32.5918C180.925 30.9073 181.964 29.7274 183.426 29.0522C184.884 28.3769 186.866 28.043 189.367 28.043C191.612 28.043 193.412 28.2693 194.759 28.7182C196.106 29.1672 197.082 29.9538 197.687 31.078C198.292 32.2022 198.593 33.7865 198.593 35.8383C198.593 37.3558 198.292 38.5542 197.687 39.4409C197.082 40.324 196.233 40.9584 195.138 41.3369C194.043 41.7153 192.752 41.9046 191.264 41.9046H185.575C185.63 43.0547 185.805 43.9749 186.102 44.665C186.395 45.3551 186.944 45.8449 187.746 46.138C188.547 46.4311 189.705 46.5795 191.223 46.5795H197.836V50.2453C196.741 50.4716 195.539 50.6868 194.232 50.8983C192.926 51.1098 191.375 51.2136 189.579 51.2136L189.575 51.2099ZM185.489 38.1943H190.629C191.471 38.1943 192.087 38.0273 192.484 37.6897C192.878 37.3521 193.075 36.751 193.075 35.8791C193.075 35.0665 192.948 34.4135 192.696 33.92C192.444 33.4303 192.05 33.0778 191.516 32.8663C190.982 32.6548 190.265 32.551 189.367 32.551C188.413 32.551 187.653 32.7142 187.092 33.037C186.532 33.3598 186.124 33.9275 185.871 34.7437C185.619 35.56 185.493 36.7102 185.493 38.198L185.489 38.1943Z" fill="white"/>
<path d="M202.004 50.9969V28.379H206.806L208.238 31.8333C209.051 30.7944 209.971 29.9114 210.999 29.1805C212.023 28.4495 213.237 28.0859 214.643 28.0859C214.951 28.0859 215.267 28.1008 215.59 28.1268C215.913 28.1564 216.213 28.2121 216.495 28.2937V34.6976C216.072 34.642 215.631 34.5938 215.167 34.5492C214.703 34.5084 214.261 34.4862 213.838 34.4862C213.022 34.4862 212.287 34.5789 211.626 34.7607C210.966 34.9425 210.361 35.2097 209.815 35.5621C209.266 35.9146 208.743 36.371 208.235 36.9312V51.0006H202L202.004 50.9969Z" fill="white"/>
<path d="M219.445 50.9981V19.8281H225.68V32.803H237.433V19.8281H243.712V50.9981H237.433V38.4055H225.68V50.9981H219.445Z" fill="white"/>
<path d="M254.495 51.249C252.472 51.249 250.884 50.6517 249.733 49.4607C248.583 48.266 248.008 46.5741 248.008 44.385V28.3789H254.242V42.5299C254.242 43.7951 254.543 44.6448 255.148 45.0789C255.753 45.513 256.543 45.7319 257.527 45.7319C258.313 45.7319 259.119 45.5835 259.95 45.2903C260.777 44.9972 261.516 44.5965 262.162 44.0882V28.3789H268.441V50.9967H263.26L262.165 48.6815C261.156 49.3568 259.987 49.9542 258.67 50.4699C257.348 50.9893 255.961 51.249 254.498 51.249H254.495Z" fill="white"/>
<path d="M285.293 51.2501C284.31 51.2501 283.427 51.1388 282.64 50.9124C281.853 50.6898 281.144 50.393 280.513 50.0294C279.883 49.6658 279.285 49.2725 278.725 48.8495L277.715 50.9978H272.49V18.8594H278.725V29.9383C279.623 29.4596 280.636 29.0255 281.757 28.6322C282.881 28.239 283.961 28.0423 285 28.0423C286.937 28.0423 288.488 28.4504 289.654 29.263C290.819 30.0792 291.669 31.3482 292.203 33.0734C292.738 34.7987 293.005 37.0805 293.005 39.9189C293.005 42.4456 292.73 44.553 292.185 46.2375C291.635 47.922 290.793 49.1797 289.657 50.0071C288.522 50.8345 287.067 51.2501 285.297 51.2501H285.293ZM282.974 46.1522C283.705 46.1522 284.358 45.9629 284.933 45.5845C285.508 45.206 285.958 44.5382 286.28 43.5847C286.603 42.6311 286.763 41.3103 286.763 39.6258C286.763 37.6593 286.588 36.2198 286.236 35.307C285.883 34.3943 285.419 33.7895 284.844 33.4964C284.269 33.2033 283.642 33.0549 282.97 33.0549C282.128 33.0549 281.348 33.1885 280.632 33.4556C279.916 33.7227 279.278 34.0121 278.714 34.3201V45.0613C279.248 45.3433 279.857 45.5956 280.547 45.8182C281.233 46.0446 282.042 46.1559 282.97 46.1559L282.974 46.1522Z" fill="white"/>
</g>
<defs>
<clipPath id="clip0_552_3926">
<rect width="293" height="69" fill="white"/>
</clipPath>
</defs>
</svg>
